<svg width="269" height="205" viewBox="0 0 269 205" fill="none" xmlns="http://www.w3.org/2000/svg">
<path d="M228.07 17.3137C227.995 17.1688 227.872 17.0552 227.721 16.9934C210.28 8.98947 191.875 3.28208 172.966 0.0139994C172.794 -0.0179454 172.617 0.00509993 172.459 0.079858C172.301 0.154616 172.171 0.27728 172.086 0.430407C169.58 4.98018 167.305 9.65355 165.27 14.4327C144.887 11.3379 124.155 11.3379 103.772 14.4327C101.723 9.64141 99.4118 4.96688 96.8481 0.430407C96.7601 0.280608 96.6291 0.160769 96.4721 0.0864964C96.3151 0.012224 96.1394 -0.0130389 95.9679 0.0139994C77.0572 3.27522 58.6509 8.98304 41.2124 16.9938C41.0632 17.0571 40.9372 17.1652 40.8519 17.3031C5.97835 69.3943 -3.57485 120.205 1.11162 170.386C1.12481 170.509 1.16258 170.628 1.22271 170.736C1.28283 170.844 1.36407 170.939 1.4616 171.015C21.7682 186.054 44.4813 197.533 68.6318 204.963C68.8018 205.014 68.9835 205.012 69.1522 204.957C69.3209 204.901 69.4687 204.796 69.5756 204.654C74.7626 197.595 79.3586 190.119 83.317 182.304C83.3714 182.197 83.4025 182.08 83.4081 181.959C83.4138 181.839 83.394 181.719 83.3499 181.607C83.3059 181.496 83.2386 181.394 83.1526 181.31C83.0666 181.226 82.9637 181.161 82.8509 181.12C75.6032 178.346 68.5866 175.003 61.867 171.12C61.7449 171.049 61.6424 170.948 61.5685 170.827C61.4945 170.706 61.4515 170.569 61.4431 170.428C61.4348 170.286 61.4613 170.145 61.5205 170.016C61.5796 169.888 61.6696 169.776 61.7823 169.69C63.1923 168.633 64.6032 167.534 65.9495 166.424C66.0692 166.326 66.2139 166.262 66.3675 166.242C66.521 166.221 66.6773 166.244 66.8188 166.307C110.842 186.403 158.503 186.403 202.005 166.307C202.147 166.24 202.305 166.214 202.461 166.233C202.617 166.252 202.764 166.314 202.886 166.414C204.232 167.524 205.643 168.633 207.063 169.69C207.177 169.775 207.267 169.886 207.328 170.014C207.388 170.143 207.415 170.284 207.408 170.425C207.401 170.566 207.359 170.704 207.286 170.825C207.213 170.946 207.111 171.048 206.989 171.12C200.285 175.035 193.262 178.377 185.995 181.11C185.882 181.153 185.78 181.219 185.695 181.304C185.609 181.389 185.543 181.492 185.499 181.605C185.456 181.717 185.437 181.838 185.444 181.959C185.451 182.079 185.483 182.197 185.538 182.304C189.563 190.076 194.152 197.542 199.269 204.642C199.373 204.787 199.52 204.897 199.689 204.954C199.858 205.012 200.042 205.014 200.213 204.962C224.406 197.557 247.159 186.077 267.491 171.015C267.59 170.943 267.673 170.85 267.733 170.744C267.793 170.637 267.83 170.519 267.841 170.396C273.452 112.382 258.448 61.9878 228.07 17.3137ZM89.8915 139.831C76.6373 139.831 65.7162 127.665 65.7162 112.724C65.7162 97.7824 76.4255 85.6155 89.8915 85.6155C103.463 85.6155 114.278 97.8881 114.066 112.723C114.066 127.665 103.357 139.831 89.8915 139.831ZM179.275 139.831C166.021 139.831 155.1 127.665 155.1 112.724C155.1 97.7824 165.809 85.6155 179.275 85.6155C192.847 85.6155 203.662 97.8881 203.45 112.723C203.45 127.665 192.847 139.831 179.275 139.831Z" fill="white"/>
</svg>
