<svg width="253" height="205" viewBox="0 0 253 205" fill="none" xmlns="http://www.w3.org/2000/svg">
<path d="M226.994 51.0897C227.155 53.3317 227.155 55.5743 227.155 57.8164C227.155 126.203 174.982 205 79.6246 205C50.2469 205 22.9564 196.511 0 181.778C4.17402 182.258 8.18695 182.418 12.5216 182.418C36.7617 182.418 59.0762 174.25 76.8955 160.317C54.0997 159.836 34.9962 144.942 28.4142 124.441C31.6251 124.922 34.8356 125.242 38.2071 125.242C42.8624 125.242 47.5182 124.601 51.8524 123.481C28.0935 118.675 10.2737 97.8554 10.2737 72.7108V72.0705C17.1764 75.9142 25.2037 78.3165 33.7114 78.6365C19.7449 69.3472 10.5949 53.492 10.5949 35.5543C10.5949 25.9451 13.163 17.1365 17.6582 9.44898C43.1831 40.8396 81.5508 61.3392 124.573 63.5818C123.771 59.738 123.289 55.7345 123.289 51.7305C123.289 23.2224 146.406 0 175.141 0C190.071 0 203.556 6.24608 213.027 16.3359C224.746 14.0939 235.983 9.76942 245.937 3.84378C242.083 15.8558 233.896 25.9456 223.141 32.3514C233.576 31.2309 243.689 28.3474 253 24.3439C245.938 34.5935 237.108 43.722 226.994 51.0897V51.0897Z" fill="white"/>
</svg>
