<svg width="225" height="225" viewBox="0 0 225 225" fill="none" xmlns="http://www.w3.org/2000/svg">
<path d="M154.688 112.5C154.688 122.256 154.16 131.66 153.237 140.625H71.7627C70.8398 131.66 69.917 122.256 69.917 112.5C69.917 102.744 70.8398 93.3398 71.7627 84.375H153.237C154.16 93.3398 154.688 102.744 154.688 112.5ZM221.44 84.375C223.77 93.3838 225 102.788 225 112.5C225 122.212 223.77 131.616 221.44 140.625H167.344C168.267 131.572 168.75 121.772 168.75 112.5C168.75 102.832 168.267 93.4277 167.344 84.375H221.44ZM216.826 70.3125H165.542C161.147 42.249 152.446 18.7295 141.24 3.70986C175.693 12.7837 203.643 37.7666 216.826 70.3125ZM151.304 70.3125H73.6963C76.377 54.3164 80.5078 40.1572 85.5615 28.7183C90.1758 18.3428 95.3174 10.8149 100.283 6.06885C105.205 1.39658 109.292 0 112.5 0C115.708 0 119.795 1.39658 124.717 6.06885C129.683 10.8149 134.824 18.3428 139.438 28.7183C144.492 40.1572 148.623 54.3164 151.304 70.3125ZM8.17822 70.3125C21.353 37.7666 49.3066 12.7837 83.7598 3.70986C72.5537 18.7295 63.8525 42.249 59.458 70.3125H8.17822ZM57.6562 84.375C56.7334 93.4277 55.8545 102.832 55.8545 112.5C55.8545 121.772 56.7334 131.572 57.6562 140.625H3.54419C1.23047 131.616 0 122.212 0 112.5C0 102.788 1.23047 93.3838 3.54419 84.375H57.6562ZM85.5615 196.26C80.5078 184.834 76.377 170.684 73.6963 154.688H151.304C148.623 170.684 144.492 184.834 139.438 196.26C134.824 206.675 129.683 214.189 124.717 218.936C119.795 223.594 115.708 225 112.104 225C109.292 225 105.205 223.594 100.283 218.936C95.3174 214.189 90.1758 206.675 85.5615 196.26ZM83.7598 221.309C49.3066 212.212 21.353 187.251 8.17822 154.688H59.458C63.8525 182.769 72.5537 206.279 83.7598 221.309ZM141.24 221.309C152.446 206.279 161.147 182.769 165.542 154.688H216.826C203.643 187.251 175.693 212.212 141.24 221.309Z" fill="white"/>
</svg>
